PathFileType	4	(X/Y/Z)	./resultDataOpenSim/trcMotMarkerGrf/sub06/qtm-12-04.trc
DataRate	CameraRate	NumFrames	NumMarkers	Units	OrigDataRate	OrigDataStartFrame	OrigNumFrames
250.000000	250.000000	13	24	m	250.000000	336	537
Frame#	Time	L.Toe.Tip			R.Toe.Tip			L.Ankle.Lat			R.Ankle.Lat			L.Ankle.Med			R.Ankle.Med			L.Heel			R.Heel			L.Knee.Lat			R.Knee.Lat			L.Knee.Med			R.Knee.Med			L.Thigh.Upper			R.Thigh.Upper			L.ASIS			R.ASIS			V.Sacral			L.Acromium			R.Acromium			C7			L.Elbow			R.Elbow			L.Wrist.Lat			R.Wrist.Lat
		X1	Y1	Z1	X2	Y2	Z2	X3	Y3	Z3	X4	Y4	Z4	X5	Y5	Z5	X6	Y6	Z6	X7	Y7	Z7	X8	Y8	Z8	X9	Y9	Z9	X10	Y10	Z10	X11	Y11	Z11	X12	Y12	Z12	X13	Y13	Z13	X14	Y14	Z14	X15	Y15	Z15	X16	Y16	Z16	X17	Y17	Z17	X18	Y18	Z18	X19	Y19	Z19	X20	Y20	Z20	X21	Y21	Z21	X22	Y22	Z22	X23	Y23	Z23	X24	Y24	Z24

336	1.34	0.60199656	0.08727256	-0.073946395	0.83642787	0.035085425	0.082119215	0.55845454	0.20949137	-0.09791479	0.70084713	0.062058624	0.11532559	0.58174038	0.21837101	-0.016123815	0.71675177	0.084705329	0.027691	0.49749075	0.24838242	-0.045018356	0.64274653	0.042803232	0.060733844	0.85478609	0.43876728	-0.13399665	0.78696758	0.44465528	0.14201457	0.85548806	0.4337157	-0.0067407393	0.73791897	0.43681111	0.018377132	0.71273746	0.81267027	-0.13504154	0.73401934	0.81655916	0.20821078	0.7860821	0.86692103	-0.097240474	0.81391733	0.87718643	0.14855262	0.61230492	0.93895231	0.04853127	0.71924968	1.3524338	-0.15013482	0.73636466	1.3355729	0.21077488	0.64855027	1.378675	0.033800837	0.69725685	1.0309528	-0.2059106	0.67446678	1.0217125	0.28143972	0.87314291	0.85722602	-0.20425657	0.85746028	0.85947849	0.31181359
337	1.344	0.61913038	0.086302758	-0.074230878	0.83648216	0.035085423	0.082124362	0.57278731	0.20745627	-0.097342558	0.70096373	0.062201206	0.1152972	0.5965318	0.21637233	-0.015696323	0.71693677	0.084971208	0.02776417	0.51098678	0.2447629	-0.04393706	0.64269377	0.043121451	0.060665285	0.86546523	0.44181002	-0.13342437	0.7878662	0.44464218	0.1421546	0.86599298	0.43688802	-0.0061753547	0.73859359	0.43701455	0.018350183	0.71973572	0.81448588	-0.13522707	0.73909713	0.81704822	0.2079638	0.79217004	0.86874844	-0.096639187	0.81925055	0.87798561	0.14895739	0.61819771	0.9397532	0.048121702	0.72464196	1.3533154	-0.14991642	0.74218844	1.3369267	0.21088222	0.65411338	1.3796059	0.034086828	0.70016725	1.0322582	-0.20586114	0.68223744	1.0226495	0.28223714	0.87419518	0.85669132	-0.20553729	0.8683636	0.86344929	0.3109122
338	1.348	0.63623115	0.085233509	-0.074486352	0.83652502	0.035085123	0.082134489	0.58718787	0.20527966	-0.096777468	0.70105654	0.062338198	0.11524662	0.61119629	0.21423913	-0.015224152	0.71717222	0.085229034	0.027769839	0.52466059	0.2409184	-0.042935811	0.64265009	0.043456117	0.060581263	0.87601448	0.44480975	-0.1328316	0.7887515	0.44463311	0.1423063	0.87638775	0.44004671	-0.0055829528	0.73929715	0.43731898	0.018330681	0.72686207	0.81625531	-0.1352446	0.74372808	0.81736552	0.20794122	0.79815397	0.87047141	-0.096051303	0.82457964	0.87867563	0.14933376	0.62425489	0.94047548	0.047599316	0.73004823	1.3541025	-0.1497096	0.74800289	1.3382105	0.21099758	0.65967927	1.3804734	0.034368771	0.70307599	1.0334769	-0.20581589	0.68988086	1.0234986	0.28305362	0.87526113	0.85613878	-0.20682139	0.87920709	0.86747317	0.31000215
339	1.352	0.65345652	0.084098409	-0.074774939	0.83655136	0.035076273	0.082156097	0.6016676	0.20296923	-0.096222332	0.70112892	0.062492835	0.11518246	0.62574679	0.21197845	-0.014712573	0.71751225	0.085462226	0.027697604	0.53850101	0.23686111	-0.042009624	0.64268751	0.043797888	0.060458115	0.8863899	0.44775887	-0.13224288	0.78962773	0.44463138	0.14247178	0.88668736	0.44316939	-0.0049658057	0.74012067	0.43771129	0.018313598	0.73389955	0.81793924	-0.13526018	0.748178	0.81761459	0.20822056	0.80412872	0.87208501	-0.095423999	0.82989674	0.87924403	0.14968306	0.63026989	0.94115581	0.047054035	0.7354615	1.3547944	-0.14951032	0.75381162	1.33942	0.21112392	0.66523996	1.3812701	0.034644956	0.70598833	1.0346142	-0.20577175	0.69740272	1.0242628	0.28388276	0.87633725	0.85556373	-0.20810106	0.89002002	0.87154379	0.30908033
340	1.356	0.67090145	0.08293094	-0.075133697	0.83657192	0.035053677	0.082182365	0.6162363	0.20052122	-0.095690547	0.70118324	0.06267997	0.11511652	0.64031492	0.20958926	-0.014206907	0.71799753	0.08566189	0.027561997	0.55247407	0.23260504	-0.041129383	0.64284405	0.044145806	0.060294118	0.896594	0.4506492	-0.13165814	0.79050093	0.44463468	0.14265433	0.89689695	0.44623486	-0.0043451805	0.74111283	0.43815206	0.018313015	0.74072935	0.81953253	-0.13537028	0.75285288	0.8179	0.20859805	0.81019407	0.8735896	-0.094746511	0.83519159	0.87968573	0.15000705	0.63610179	0.94181861	0.046584722	0.74087739	1.3553931	-0.14931884	0.75961914	1.3405415	0.21125784	0.67079655	1.3819909	0.034910783	0.70890571	1.0356712	-0.20573012	0.70486822	1.0249538	0.28471854	0.8774144	0.85496772	-0.20937577	0.90083572	0.87564672	0.30812694
341	1.36	0.68853969	0.081741288	-0.075544262	0.83660167	0.035021062	0.082206881	0.63089328	0.19793722	-0.095186293	0.70122585	0.062896692	0.11505682	0.65499949	0.20707684	-0.013740264	0.71856541	0.085833962	0.027408684	0.56656977	0.22815538	-0.04028497	0.64311724	0.044512429	0.060110078	0.90664072	0.4534738	-0.13105835	0.79136033	0.44464186	0.14285192	0.90697578	0.44923185	-0.003743809	0.74222739	0.43861345	0.018330163	0.74737322	0.82105841	-0.13557415	0.75781942	0.81822161	0.20883472	0.81644119	0.87499087	-0.094053616	0.84045952	0.88000575	0.15031163	0.64177511	0.94247029	0.04627747	0.74629563	1.3558986	-0.14913896	0.76542503	1.3415609	0.21139119	0.67635568	1.3826378	0.035161492	0.71182558	1.0366437	-0.20569142	0.71234397	1.0255829	0.28555545	0.87848829	0.85434854	-0.21065311	0.91164508	0.87976687	0.30712736
342	1.364	0.70632094	0.08053296	-0.075981895	0.83665471	0.034992063	0.082227974	0.64564792	0.19521949	-0.094709579	0.70127418	0.063124705	0.1150016	0.6697976	0.2044561	-0.013308769	0.71903729	0.08601235	0.027316085	0.58078557	0.22351837	-0.039476289	0.6434658	0.044916158	0.059942662	0.91651799	0.45622698	-0.13042836	0.79215337	0.44466161	0.14304378	0.9167875	0.45215179	-0.0032153847	0.74340319	0.43908453	0.018354177	0.75397271	0.82253402	-0.13580043	0.76285077	0.81851494	0.20889926	0.8228873	0.87629397	-0.093384748	0.84571221	0.88021796	0.15060166	0.64742108	0.94310989	0.046209197	0.75171945	1.3563084	-0.14897576	0.77122524	1.3424761	0.21152068	0.68191887	1.3832155	0.035399894	0.71474013	1.037526	-0.20565088	0.71985941	1.0261541	0.28639368	0.87956451	0.85369725	-0.21193979	0.92236667	0.88388152	0.30607954
343	1.368	0.72422787	0.079324081	-0.076446883	0.83674027	0.034978324	0.082247605	0.6605192	0.19236786	-0.094261895	0.7013493	0.063343008	0.11494496	0.68460231	0.20174309	-0.01286722	0.71930358	0.086246797	0.027337206	0.59510667	0.21870991	-0.038692134	0.64382862	0.045358356	0.059826	0.92619459	0.4589029	-0.12977311	0.79280281	0.4447092	0.1431941	0.92615697	0.45498653	-0.002843279	0.7446745	0.43954541	0.018405334	0.7606892	0.82394485	-0.13596652	0.76778142	0.8187337	0.20889233	0.82941387	0.87748902	-0.092752666	0.85099275	0.88034748	0.15087351	0.65314361	0.94372176	0.04640022	0.75714925	1.3566246	-0.14883203	0.7770171	1.3432942	0.21165061	0.68748319	1.3837229	0.035635528	0.71763349	1.0383152	-0.20559847	0.72739831	1.0266629	0.28724092	0.88065007	0.85300558	-0.21323718	0.93291601	0.88796274	0.3049859
344	1.372	0.74225076	0.078135927	-0.076950654	0.83685884	0.034975888	0.082271214	0.67551639	0.1893905	-0.093842475	0.70145303	0.063548559	0.11489008	0.69931258	0.19893797	-0.012367821	0.71945361	0.086558004	0.027445247	0.60952548	0.21374901	-0.03792005	0.64415692	0.045803424	0.059748997	0.93566928	0.46149449	-0.12910147	0.79330271	0.44478808	0.14329202	0.93506332	0.45774425	-0.0026375458	0.74611177	0.43997613	0.018545742	0.7675673	0.82525751	-0.13604172	0.77260684	0.81886588	0.20888346	0.8358653	0.87855492	-0.092146912	0.85637549	0.88043251	0.15111786	0.65892572	0.94427137	0.046742806	0.7625752	1.3568548	-0.14870582	0.78279869	1.344022	0.21178407	0.69304795	1.3841537	0.035875038	0.72048741	1.0390136	-0.20552494	0.73493181	1.0271008	0.288101	0.88174718	0.85227026	-0.21454439	0.94328768	0.89199368	0.30385361
345	1.376	0.76036849	0.076972321	-0.077503123	0.8370089	0.034966014	0.082299841	0.69064176	0.18630416	-0.093454362	0.70156466	0.063759482	0.11484768	0.71398063	0.19602492	-0.01182612	0.71961626	0.086919774	0.027580822	0.62405401	0.20864814	-0.037159335	0.6444197	0.046197967	0.059645224	0.94501579	0.46399235	-0.1283941	0.79378385	0.44487603	0.14338168	0.94373683	0.4604484	-0.0024511309	0.74768536	0.44039517	0.018804029	0.77457601	0.82644778	-0.13601545	0.77736845	0.81891625	0.20886785	0.84219046	0.87947826	-0.091553791	0.86190556	0.88050113	0.15133452	0.66467032	0.94473102	0.047043101	0.76798353	1.3570017	-0.14859251	0.78856688	1.3446621	0.21191599	0.6986138	1.3845069	0.036116747	0.72330285	1.0396294	-0.20543035	0.74245691	1.027462	0.28896618	0.88286086	0.85148969	-0.21585599	0.95353898	0.89598171	0.30269606
346	1.38	0.77855818	0.075825459	-0.078113208	0.83718238	0.034925524	0.08232559	0.7058984	0.18312303	-0.093102354	0.7016652	0.063992823	0.11482173	0.7287558	0.19299774	-0.011312977	0.71977957	0.087301563	0.027724478	0.63871646	0.20340919	-0.036420177	0.64459463	0.046529343	0.059471307	0.95434659	0.46638239	-0.12761028	0.79440313	0.44494234	0.14351935	0.95245066	0.46309621	-0.0020934478	0.74927758	0.44085735	0.01909345	0.78173613	0.82750652	-0.13584487	0.78207603	0.81888829	0.2088071	0.84842855	0.88025657	-0.090969917	0.86749451	0.88052305	0.15154855	0.67032058	0.94510258	0.047160053	0.77337268	1.3570593	-0.14849195	0.79432236	1.3452141	0.21204006	0.70418269	1.3847901	0.036348644	0.72611988	1.040174	-0.20532807	0.74998714	1.027746	0.28983018	0.88400237	0.85065962	-0.21715802	0.96372386	0.89995236	0.30151693
347	1.384	0.79682428	0.07470148	-0.078780028	0.83734788	0.034844466	0.082344763	0.72127995	0.17985391	-0.092778488	0.70175472	0.064248898	0.11480642	0.74372035	0.18987067	-0.01088753	0.71986124	0.087711868	0.027876523	0.65353743	0.19802856	-0.035715698	0.64467306	0.046850131	0.059268155	0.96370565	0.46865245	-0.12673568	0.79520201	0.44497969	0.14371516	0.96131525	0.46564865	-0.0014761753	0.75082775	0.4413942	0.019269993	0.78899722	0.82843206	-0.13555196	0.7867118	0.81877749	0.20872101	0.8546228	0.88088939	-0.090406845	0.87292235	0.88040448	0.15180505	0.67590953	0.94540175	0.047065821	0.77875604	1.3570178	-0.14841269	0.80007541	1.3456779	0.21215997	0.70976289	1.3850136	0.036548076	0.72899491	1.040655	-0.20523224	0.75752489	1.0279576	0.29070018	0.88517678	0.849778	-0.2184392	0.97385114	0.90391678	0.30031251
348	1.388	0.81521303	0.073617719	-0.079478638	0.83746882	0.034744159	0.082366734	0.73677089	0.17650029	-0.092474791	0.7018485	0.064516284	0.11479373	0.75887095	0.18666239	-0.010570407	0.71987205	0.088177019	0.028009034	0.66853084	0.19250848	-0.035052863	0.64468131	0.047228684	0.059109077	0.97301972	0.47080763	-0.12580392	0.79614196	0.44500922	0.14394913	0.97038055	0.46807881	-0.00057570135	0.75240062	0.44197301	0.019263886	0.79605574	0.82923161	-0.13533955	0.79127049	0.81857865	0.20876707	0.86079552	0.88137624	-0.089885195	0.87804207	0.8800801	0.15213217	0.68150591	0.94563448	0.046809925	0.78414388	1.3568783	-0.14835976	0.80583838	1.3460541	0.21228577	0.71536407	1.3851818	0.03669829	0.73194931	1.0410739	-0.20513972	0.76506524	1.0281056	0.29158461	0.88637019	0.84885452	-0.21970834	0.98387637	0.90783396	0.2991092
